<svg width="20" height="20" viewBox="0 0 20 20" fill="none" xmlns="http://www.w3.org/2000/svg">
<g id="Comment">
<path id="Vector" d="M2.67907 17.5117L0.825841 17.9202L1.54359 15.8564L1.5436 15.8564L1.54489 15.8526C1.83997 14.9893 1.8427 14.0556 1.51487 13.1802C1.09142 12.0088 0.88995 10.6996 0.979488 9.34293C1.29238 4.60615 5.23 0.841672 9.91065 0.751459C14.998 0.661681 19.1581 4.7382 19.2476 9.84322L19.2476 9.84328C19.337 14.9183 15.2205 19.1797 10.206 19.25C8.48255 19.2491 6.87757 18.7981 5.49745 17.9907C4.66186 17.481 3.64552 17.2983 2.67936 17.5116C2.67926 17.5117 2.67916 17.5117 2.67907 17.5117Z" stroke="#97989D" stroke-width="1.5"/>
<path id="Vector 23" d="M5.99902 8H14.999" stroke="#97989D" stroke-width="1.5" stroke-linecap="round" stroke-linejoin="round"/>
<path id="Vector 24" d="M5.99902 12H10.999" stroke="#97989D" stroke-width="1.5" stroke-linecap="round" stroke-linejoin="round"/>
</g>
</svg>
