<svg width="20" height="20" viewBox="0 0 20 20" fill="none" xmlns="http://www.w3.org/2000/svg">
    <g id="Icon/Like">
        <g id="Heart">
            <path id="Subtract"
                d="M1.35235 9.63911L0.641658 9.87874L0.641884 9.87941L1.35235 9.63911ZM4.85625 2.15762L5.07572 2.87479L5.07607 2.87468L4.85625 2.15762ZM10.0012 18.0999L9.65684 18.7661C9.87362 18.8782 10.1314 18.8778 10.3478 18.765L10.0012 18.0999ZM18.6492 9.63911L17.9384 9.39968L17.9372 9.40339L18.6492 9.63911ZM15.1368 2.15762L15.3562 1.44045L15.3555 1.44021L15.1368 2.15762ZM10.0012 2.97849L9.56518 3.5887C9.82894 3.77718 10.1839 3.77487 10.4452 3.58296L10.0012 2.97849ZM13.118 5.47521L13.8445 5.66117V5.66117L13.118 5.47521ZM13.2396 5.40312L13.4256 4.67654L13.4256 4.67654L13.2396 5.40312ZM13.19 5.59688L13.376 4.8703L13.376 4.8703L13.19 5.59688ZM15.6868 8.08163L16.4329 8.00512L16.4329 8.00511L15.6868 8.08163ZM15.8857 8.06123L15.1397 8.13775L15.1397 8.13775L15.8857 8.06123ZM2.06304 9.39949C1.14881 6.68807 2.23841 3.74307 5.07572 2.87479L4.63678 1.44045C0.809283 2.61175 -0.477478 6.5596 0.641658 9.87874L2.06304 9.39949ZM10.0012 18.0999C10.3457 17.4337 10.3458 17.4337 10.3459 17.4338C10.3459 17.4338 10.3459 17.4338 10.3459 17.4338C10.3459 17.4338 10.3458 17.4337 10.3455 17.4336C10.3451 17.4334 10.3442 17.4329 10.3429 17.4322C10.3403 17.4309 10.3361 17.4287 10.3303 17.4256C10.3186 17.4195 10.3004 17.4099 10.2763 17.3969C10.2279 17.371 10.1553 17.3316 10.0616 17.2794C9.87405 17.175 9.60204 17.0193 9.26956 16.8171C8.60371 16.4121 7.69997 15.8234 6.74827 15.089C4.81542 13.5974 2.80607 11.5964 2.06281 9.39882L0.641884 9.87941C1.53403 12.5171 3.84913 14.7464 5.83188 16.2765C6.83798 17.0529 7.78982 17.6727 8.4901 18.0986C8.8407 18.3119 9.12939 18.4772 9.33178 18.5899C9.43301 18.6463 9.51272 18.6895 9.56789 18.7191C9.59548 18.7339 9.61694 18.7452 9.63189 18.7531C9.63936 18.757 9.64521 18.7601 9.64939 18.7623C9.65147 18.7634 9.65314 18.7642 9.65438 18.7649C9.65501 18.7652 9.65552 18.7655 9.65593 18.7657C9.65614 18.7658 9.65636 18.7659 9.65647 18.766C9.65666 18.7661 9.65684 18.7661 10.0012 18.0999ZM17.9372 9.40339C17.2203 11.5687 15.215 13.5679 13.2733 15.0683C12.3181 15.8064 11.4092 16.4005 10.739 16.81C10.4043 17.0145 10.1303 17.1722 9.9413 17.2781C9.84682 17.3311 9.77365 17.371 9.72485 17.3973C9.70046 17.4105 9.68215 17.4203 9.67033 17.4265C9.66442 17.4297 9.66013 17.4319 9.65751 17.4333C9.6562 17.434 9.6553 17.4345 9.65483 17.4347C9.6546 17.4348 9.65447 17.4349 9.65444 17.4349C9.65443 17.4349 9.6545 17.4349 9.65449 17.4349C9.65458 17.4348 9.6547 17.4348 10.0012 18.0999C10.3478 18.765 10.348 18.7649 10.3482 18.7648C10.3483 18.7648 10.3485 18.7647 10.3487 18.7646C10.3491 18.7644 10.3496 18.7641 10.3502 18.7638C10.3515 18.7631 10.3531 18.7622 10.3552 18.7611C10.3594 18.7589 10.3653 18.7558 10.3728 18.7519C10.3878 18.7439 10.4094 18.7324 10.4371 18.7174C10.4926 18.6875 10.5728 18.6437 10.6746 18.5867C10.8781 18.4726 11.1685 18.3054 11.521 18.09C12.225 17.6599 13.1814 17.0349 14.1904 16.2553C16.1771 14.7201 18.4957 12.489 19.3612 9.87484L17.9372 9.40339ZM14.9173 2.87479C17.7561 3.74353 18.8513 6.68982 17.9384 9.39969L19.36 9.87854C20.4786 6.55784 19.1822 2.61129 15.3562 1.44045L14.9173 2.87479ZM10.4452 3.58296C11.6265 2.7153 13.3854 2.40784 14.9181 2.87503L15.3555 1.44021C13.3861 0.839891 11.1332 1.2165 9.55727 2.37402L10.4452 3.58296ZM5.07607 2.87468C6.60795 2.40508 8.29993 2.68452 9.56518 3.5887L10.4373 2.36829C8.78801 1.18967 6.61035 0.835449 4.63643 1.44055L5.07607 2.87468ZM13.8445 5.66117C13.7555 6.00894 13.4015 6.21871 13.0537 6.1297L13.4256 4.67654C12.9708 4.56014 12.5078 4.83446 12.3914 5.28924L13.8445 5.66117ZM13.376 4.8703C13.7238 4.95931 13.9336 5.31339 13.8445 5.66117L12.3914 5.28924C12.275 5.74403 12.5493 6.20706 13.0041 6.32346L13.376 4.8703ZM16.4329 8.00511C16.2755 6.47061 14.9957 5.28485 13.376 4.8703L13.0041 6.32346C14.1983 6.62912 14.8648 7.4184 14.9407 8.15815L16.4329 8.00511ZM15.72 7.42482C16.0771 7.38819 16.3963 7.648 16.4329 8.00512L14.9407 8.15814C14.9886 8.62514 15.406 8.96489 15.873 8.91699L15.72 7.42482ZM15.1397 8.13775C15.103 7.78063 15.3628 7.46145 15.72 7.42482L15.873 8.91699C16.34 8.8691 16.6797 8.4517 16.6318 7.9847L15.1397 8.13775ZM13.0537 6.1297C14.3055 6.45008 15.053 7.29269 15.1397 8.13775L16.6318 7.98471C16.4635 6.34337 15.101 5.10534 13.4256 4.67654L13.0537 6.1297Z"
                fill="#97989D" />
        </g>
    </g>
</svg>